{
  "accessors": [
    {
      "bufferView": 2,
      "componentType": 5126,
      "count": 65532,
      "max": [
        0.19857800006866455,
        -330.21200561523438,
        346.07998657226562
      ],
      "min": [
        -420.40399169921875,
        -734.5469970703125,
        -121.97799682617188
      ],
      "type": "VEC3"
    },
    {
      "bufferView": 2,
      "byteOffset": 786384,
      "componentType": 5126,
      "count": 65532,
      "max": [
        0.99971753358840942,
        0.99902886152267456,
        0.99933487176895142
      ],
      "min": [
        -0.9971308708190918,
        -0.99939244985580444,
        -0.99963021278381348
      ],
      "type": "VEC3"
    },
    {
      "bufferView": 3,
      "componentType": 5126,
      "count": 65532,
      "max": [
        0.99999964237213135,
        0.99989265203475952,
        1,
        1
      ],
      "min": [
        -0.99924778938293457,
        -0.99999988079071045,
        -0.98146414756774902,
        1
      ],
      "type": "VEC4"
    },
    {
      "bufferView": 1,
      "componentType": 5126,
      "count": 65532,
      "max": [
        0.91021502017974854,
        0.99776899814605713
      ],
      "min": [
        0.0018260000506415963,
        0.0019920000340789557
      ],
      "type": "VEC2"
    },
    {
      "bufferView": 0,
      "componentType": 5125,
      "count": 333345,
      "max": [
        65531
      ],
      "min": [
        0
      ],
      "type": "SCALAR"
    },
    {
      "bufferView": 2,
      "byteOffset": 1572768,
      "componentType": 5126,
      "count": 65532,
      "max": [
        -27.347299575805664,
        -331.65798950195312,
        341.82699584960938
      ],
      "min": [
        -489.22198486328125,
        -709.39599609375,
        -113.97699737548828
      ],
      "type": "VEC3"
    },
    {
      "bufferView": 2,
      "byteOffset": 2359152,
      "componentType": 5126,
      "count": 65532,
      "max": [
        0.99998223781585693,
        0.98810213804244995,
        0.99891459941864014
      ],
      "min": [
        -0.99196738004684448,
        -0.99996566772460938,
        -0.9998740553855896
      ],
      "type": "VEC3"
    },
    {
      "bufferView": 3,
      "byteOffset": 1048512,
      "componentType": 5126,
      "count": 65532,
      "max": [
        1,
        0.99999940395355225,
        0.9999997615814209,
        1
      ],
      "min": [
        -0.99638158082962036,
        -0.99999868869781494,
        -0.98778229951858521,
        1
      ],
      "type": "VEC4"
    },
    {
      "bufferView": 1,
      "byteOffset": 524256,
      "componentType": 5126,
      "count": 65532,
      "max": [
        0.91505402326583862,
        0.99800699949264526
      ],
      "min": [
        0.0018260000506415963,
        0.0053920000791549683
      ],
      "type": "VEC2"
    },
    {
      "bufferView": 0,
      "byteOffset": 1333380,
      "componentType": 5125,
      "count": 305547,
      "max": [
        65531
      ],
      "min": [
        0
      ],
      "type": "SCALAR"
    },
    {
      "bufferView": 2,
      "byteOffset": 3145536,
      "componentType": 5126,
      "count": 65532,
      "max": [
        -91.921699523925781,
        -330.21200561523438,
        358.20901489257812
      ],
      "min": [
        -507.17800903320312,
        -736.23797607421875,
        -118.35900115966797
      ],
      "type": "VEC3"
    },
    {
      "bufferView": 2,
      "byteOffset": 3931920,
      "componentType": 5126,
      "count": 65532,
      "max": [
        0.99997252225875854,
        0.99990886449813843,
        0.99875634908676147
      ],
      "min": [
        -0.99777287244796753,
        -0.99998444318771362,
        -0.99987012147903442
      ],
      "type": "VEC3"
    },
    {
      "bufferView": 3,
      "byteOffset": 2097024,
      "componentType": 5126,
      "count": 65532,
      "max": [
        1,
        0.99998044967651367,
        1,
        1
      ],
      "min": [
        -0.9999314546585083,
        -1,
        -0.99844807386398315,
        1
      ],
      "type": "VEC4"
    },
    {
      "bufferView": 1,
      "byteOffset": 1048512,
      "componentType": 5126,
      "count": 65532,
      "max": [
        0.91505402326583862,
        0.99800598621368408
      ],
      "min": [
        0.0018260000506415963,
        0.0019920000340789557
      ],
      "type": "VEC2"
    },
    {
      "bufferView": 0,
      "byteOffset": 2555568,
      "componentType": 5125,
      "count": 301251,
      "max": [
        65531
      ],
      "min": [
        0
      ],
      "type": "SCALAR"
    },
    {
      "bufferView": 2,
      "byteOffset": 4718304,
      "componentType": 5126,
      "count": 65532,
      "max": [
        -17.590000152587891,
        -350.39700317382812,
        356.2769775390625
      ],
      "min": [
        -507.24099731445312,
        -734.885986328125,
        -108.81700134277344
      ],
      "type": "VEC3"
    },
    {
      "bufferView": 2,
      "byteOffset": 5504688,
      "componentType": 5126,
      "count": 65532,
      "max": [
        0.99997192621231079,
        0.99346601963043213,
        0.99997544288635254
      ],
      "min": [
        -0.99941372871398926,
        -0.99995404481887817,
        -0.9999922513961792
      ],
      "type": "VEC3"
    },
    {
      "bufferView": 3,
      "byteOffset": 3145536,
      "componentType": 5126,
      "count": 65532,
      "max": [
        1,
        0.99999493360519409,
        1,
        1
      ],
      "min": [
        -0.99985021352767944,
        -0.99999970197677612,
        -0.99322879314422607,
        1
      ],
      "type": "VEC4"
    },
    {
      "bufferView": 1,
      "byteOffset": 1572768,
      "componentType": 5126,
      "count": 65532,
      "max": [
        0.91505402326583862,
        0.9980049729347229
      ],
      "min": [
        0.0018260000506415963,
        0.0019920000340789557
      ],
      "type": "VEC2"
    },
    {
      "bufferView": 0,
      "byteOffset": 3760572,
      "componentType": 5125,
      "count": 289854,
      "max": [
        65531
      ],
      "min": [
        0
      ],
      "type": "SCALAR"
    },
    {
      "bufferView": 2,
      "byteOffset": 6291072,
      "componentType": 5126,
      "count": 65532,
      "max": [
        -72.119903564453125,
        -345.38299560546875,
        339.34500122070312
      ],
      "min": [
        -448.1419677734375,
        -727.1199951171875,
        -94.263999938964844
      ],
      "type": "VEC3"
    },
    {
      "bufferView": 2,
      "byteOffset": 7077456,
      "componentType": 5126,
      "count": 65532,
      "max": [
        0.99988460540771484,
        0.99386465549468994,
        0.99931073188781738
      ],
      "min": [
        -0.99996209144592285,
        -0.99994564056396484,
        -0.99999755620956421
      ],
      "type": "VEC3"
    },
    {
      "bufferView": 3,
      "byteOffset": 4194048,
      "componentType": 5126,
      "count": 65532,
      "max": [
        1,
        0.99936956167221069,
        1,
        1
      ],
      "min": [
        -0.9998021125793457,
        -1,
        -0.97883892059326172,
        1
      ],
      "type": "VEC4"
    },
    {
      "bufferView": 1,
      "byteOffset": 2097024,
      "componentType": 5126,
      "count": 65532,
      "max": [
        0.91505402326583862,
        0.99800598621368408
      ],
      "min": [
        0.0018260000506415963,
        0.016775000840425491
      ],
      "type": "VEC2"
    },
    {
      "bufferView": 0,
      "byteOffset": 4919988,
      "componentType": 5125,
      "count": 304440,
      "max": [
        65531
      ],
      "min": [
        0
      ],
      "type": "SCALAR"
    },
    {
      "bufferView": 2,
      "byteOffset": 7863840,
      "componentType": 5126,
      "count": 65532,
      "max": [
        -60.189998626708984,
        -343.90301513671875,
        329.11700439453125
      ],
      "min": [
        -483.3900146484375,
        -721.94097900390625,
        -120.61299896240234
      ],
      "type": "VEC3"
    },
    {
      "bufferView": 2,
      "byteOffset": 8650224,
      "componentType": 5126,
      "count": 65532,
      "max": [
        0.99995923042297363,
        0.99997782707214355,
        0.99653840065002441
      ],
      "min": [
        -0.99982964992523193,
        -0.99998462200164795,
        -0.99968808889389038
      ],
      "type": "VEC3"
    },
    {
      "bufferView": 3,
      "byteOffset": 5242560,
      "componentType": 5126,
      "count": 65532,
      "max": [
        1,
        0.99985122680664062,
        1,
        1
      ],
      "min": [
        -1,
        -0.9999963641166687,
        -0.99726802110671997,
        1
      ],
      "type": "VEC4"
    },
    {
      "bufferView": 1,
      "byteOffset": 2621280,
      "componentType": 5126,
      "count": 65532,
      "max": [
        0.91505402326583862,
        0.99800699949264526
      ],
      "min": [
        0.0018260000506415963,
        0.017069000750780106
      ],
      "type": "VEC2"
    },
    {
      "bufferView": 0,
      "byteOffset": 6137748,
      "componentType": 5125,
      "count": 290415,
      "max": [
        65531
      ],
      "min": [
        0
      ],
      "type": "SCALAR"
    },
    {
      "bufferView": 2,
      "byteOffset": 9436608,
      "componentType": 5126,
      "count": 65532,
      "max": [
        -18.208799362182617,
        -340.57699584960938,
        320.33999633789062
      ],
      "min": [
        -474.71600341796875,
        -714.35302734375,
        -113.77101135253906
      ],
      "type": "VEC3"
    },
    {
      "bufferView": 2,
      "byteOffset": 10222992,
      "componentType": 5126,
      "count": 65532,
      "max": [
        0.99994969367980957,
        0.99796748161315918,
        0.99997597932815552
      ],
      "min": [
        -0.99786853790283203,
        -0.999869704246521,
        -0.99997562170028687
      ],
      "type": "VEC3"
    },
    {
      "bufferView": 3,
      "byteOffset": 6291072,
      "componentType": 5126,
      "count": 65532,
      "max": [
        1,
        0.99999493360519409,
        1,
        1
      ],
      "min": [
        -0.99999958276748657,
        -1,
        -0.99876338243484497,
        -1
      ],
      "type": "VEC4"
    },
    {
      "bufferView": 1,
      "byteOffset": 3145536,
      "componentType": 5126,
      "count": 65532,
      "max": [
        0.91505402326583862,
        0.99800801277160645
      ],
      "min": [
        0.0018260000506415963,
        0.0019920000340789557
      ],
      "type": "VEC2"
    },
    {
      "bufferView": 0,
      "byteOffset": 7299408,
      "componentType": 5125,
      "count": 262194,
      "max": [
        65531
      ],
      "min": [
        0
      ],
      "type": "SCALAR"
    },
    {
      "bufferView": 2,
      "byteOffset": 11009376,
      "componentType": 5126,
      "count": 65533,
      "max": [
        0.19857800006866455,
        -330.21200561523438,
        330.8699951171875
      ],
      "min": [
        -507.24099731445312,
        -722.72998046875,
        -122.447998046875
      ],
      "type": "VEC3"
    },
    {
      "bufferView": 2,
      "byteOffset": 11795772,
      "componentType": 5126,
      "count": 65533,
      "max": [
        0.99998736381530762,
        0.99999922513961792,
        0.99983412027359009
      ],
      "min": [
        -0.99962621927261353,
        -0.99995523691177368,
        -0.99985671043395996
      ],
      "type": "VEC3"
    },
    {
      "bufferView": 3,
      "byteOffset": 7339584,
      "componentType": 5126,
      "count": 65533,
      "max": [
        1,
        0.9999883770942688,
        1,
        1
      ],
      "min": [
        -0.9999692440032959,
        -1,
        -0.99999922513961792,
        -1
      ],
      "type": "VEC4"
    },
    {
      "bufferView": 1,
      "byteOffset": 3669792,
      "componentType": 5126,
      "count": 65533,
      "max": [
        0.91505402326583862,
        0.99800699949264526
      ],
      "min": [
        0.0018260000506415963,
        0.0032579998951405287
      ],
      "type": "VEC2"
    },
    {
      "bufferView": 0,
      "byteOffset": 8348184,
      "componentType": 5125,
      "count": 234315,
      "max": [
        65532
      ],
      "min": [
        0
      ],
      "type": "SCALAR"
    },
    {
      "bufferView": 2,
      "byteOffset": 12582168,
      "componentType": 5126,
      "count": 41139,
      "max": [
        -6.4755501747131348,
        -335.99301147460938,
        358.04098510742188
      ],
      "min": [
        -500.48800659179688,
        -730.3699951171875,
        -110.7760009765625
      ],
      "type": "VEC3"
    },
    {
      "bufferView": 2,
      "byteOffset": 13075836,
      "componentType": 5126,
      "count": 41139,
      "max": [
        0.99998694658279419,
        0.99997782707214355,
        0.99888581037521362
      ],
      "min": [
        -0.99570834636688232,
        -0.99995291233062744,
        -0.99984186887741089
      ],
      "type": "VEC3"
    },
    {
      "bufferView": 3,
      "byteOffset": 8388112,
      "componentType": 5126,
      "count": 41139,
      "max": [
        1,
        0.99982446432113647,
        0.99999970197677612,
        1
      ],
      "min": [
        -0.99999791383743286,
        -0.99999934434890747,
        -0.97447729110717773,
        -1
      ],
      "type": "VEC4"
    },
    {
      "bufferView": 1,
      "byteOffset": 4194056,
      "componentType": 5126,
      "count": 41139,
      "max": [
        0.91505402326583862,
        0.99800801277160645
      ],
      "min": [
        0.0018260000506415963,
        0.0038300000596791506
      ],
      "type": "VEC2"
    },
    {
      "bufferView": 0,
      "byteOffset": 9285444,
      "componentType": 5125,
      "count": 123789,
      "max": [
        41138
      ],
      "min": [
        0
      ],
      "type": "SCALAR"
    }
  ],
  "asset": {
    "extras": {
      "author": "IUPUI Center for Digital Scholarship (https://sketchfab.com/iupuicds)",
      "license": "CC-BY-4.0 (http://creativecommons.org/licenses/by/4.0/)",
      "source": "https://sketchfab.com/models/0be62e69dfb64541add8ca016c88b90c",
      "title": "Framed Engraving Plate"
    },
    "generator": "Sketchfab-3.47.8",
    "version": "2.0"
  },
  "bufferViews": [
    {
      "buffer": 0,
      "byteLength": 9780600,
      "byteOffset": 0,
      "name": "floatBufferViews",
      "target": 34963
    },
    {
      "buffer": 0,
      "byteLength": 4523168,
      "byteOffset": 9780600,
      "byteStride": 8,
      "name": "floatBufferViews",
      "target": 34962
    },
    {
      "buffer": 0,
      "byteLength": 13569504,
      "byteOffset": 14303768,
      "byteStride": 12,
      "name": "floatBufferViews",
      "target": 34962
    },
    {
      "buffer": 0,
      "byteLength": 9046336,
      "byteOffset": 27873272,
      "byteStride": 16,
      "name": "floatBufferViews",
      "target": 34962
    }
  ],
  "buffers": [
    {
      "byteLength": 36919608,
      "uri": "scene.bin"
    }
  ],
  "images": [
    {
      "uri": "textures/material_0_baseColor.png"
    }
  ],
  "materials": [
    {
      "doubleSided": true,
      "emissiveFactor": [
        0,
        0,
        0
      ],
      "name": "material_0",
      "pbrMetallicRoughness": {
        "baseColorFactor": [
          1,
          1,
          1,
          1
        ],
        "baseColorTexture": {
          "index": 0,
          "texCoord": 0
        },
        "metallicFactor": 0,
        "roughnessFactor": 0.59999999999999998
      }
    }
  ],
  "meshes": [
    {
      "primitives": [
        {
          "attributes": {
            "NORMAL": 1,
            "POSITION": 0,
            "TANGENT": 2,
            "TEXCOORD_0": 3
          },
          "indices": 4,
          "material": 0,
          "mode": 4
        }
      ]
    },
    {
      "primitives": [
        {
          "attributes": {
            "NORMAL": 6,
            "POSITION": 5,
            "TANGENT": 7,
            "TEXCOORD_0": 8
          },
          "indices": 9,
          "material": 0,
          "mode": 4
        }
      ]
    },
    {
      "primitives": [
        {
          "attributes": {
            "NORMAL": 11,
            "POSITION": 10,
            "TANGENT": 12,
            "TEXCOORD_0": 13
          },
          "indices": 14,
          "material": 0,
          "mode": 4
        }
      ]
    },
    {
      "primitives": [
        {
          "attributes": {
            "NORMAL": 16,
            "POSITION": 15,
            "TANGENT": 17,
            "TEXCOORD_0": 18
          },
          "indices": 19,
          "material": 0,
          "mode": 4
        }
      ]
    },
    {
      "primitives": [
        {
          "attributes": {
            "NORMAL": 21,
            "POSITION": 20,
            "TANGENT": 22,
            "TEXCOORD_0": 23
          },
          "indices": 24,
          "material": 0,
          "mode": 4
        }
      ]
    },
    {
      "primitives": [
        {
          "attributes": {
            "NORMAL": 26,
            "POSITION": 25,
            "TANGENT": 27,
            "TEXCOORD_0": 28
          },
          "indices": 29,
          "material": 0,
          "mode": 4
        }
      ]
    },
    {
      "primitives": [
        {
          "attributes": {
            "NORMAL": 31,
            "POSITION": 30,
            "TANGENT": 32,
            "TEXCOORD_0": 33
          },
          "indices": 34,
          "material": 0,
          "mode": 4
        }
      ]
    },
    {
      "primitives": [
        {
          "attributes": {
            "NORMAL": 36,
            "POSITION": 35,
            "TANGENT": 37,
            "TEXCOORD_0": 38
          },
          "indices": 39,
          "material": 0,
          "mode": 4
        }
      ]
    },
    {
      "primitives": [
        {
          "attributes": {
            "NORMAL": 41,
            "POSITION": 40,
            "TANGENT": 42,
            "TEXCOORD_0": 43
          },
          "indices": 44,
          "material": 0,
          "mode": 4
        }
      ]
    }
  ],
  "nodes": [
    {
      "children": [
        1
      ],
      "name": "RootNode (gltf orientation matrix)",
      "rotation": [
        -0.70710678118654746,
        -0,
        -0,
        0.70710678118654757
      ]
    },
    {
      "children": [
        2
      ],
      "matrix": [
        -0.68109184503555298,
        -0.55466991662979126,
        -0.47796985507011414,
        0,
        -0.70375537872314453,
        0.67608904838562012,
        0.2182476669549942,
        0,
        0.20209476351737976,
        0.48502054810523987,
        -0.85083061456680298,
        0,
        -826.41229248046875,
        -378.78317260742188,
        212.38032531738281,
        1
      ],
      "name": "RootNode (model correction matrix)"
    },
    {
      "children": [
        3,
        4,
        5,
        6,
        7,
        8,
        9,
        10,
        11
      ],
      "name": "framedpicfinal.obj.cleaner.materialmerger.gles"
    },
    {
      "mesh": 0,
      "name": ""
    },
    {
      "mesh": 1,
      "name": ""
    },
    {
      "mesh": 2,
      "name": ""
    },
    {
      "mesh": 3,
      "name": ""
    },
    {
      "mesh": 4,
      "name": ""
    },
    {
      "mesh": 5,
      "name": ""
    },
    {
      "mesh": 6,
      "name": ""
    },
    {
      "mesh": 7,
      "name": ""
    },
    {
      "mesh": 8,
      "name": ""
    }
  ],
  "samplers": [
    {
      "magFilter": 9729,
      "minFilter": 9987,
      "wrapS": 10497,
      "wrapT": 10497
    }
  ],
  "scene": 0,
  "scenes": [
    {
      "name": "OSG_Scene",
      "nodes": [
        0
      ]
    }
  ],
  "textures": [
    {
      "sampler": 0,
      "source": 0
    }
  ]
}

