{
  "accessors": [
    {
      "bufferView": 2,
      "componentType": 5126,
      "count": 66,
      "max": [
        0.046422000974416733,
        1,
        0.0083840899169445038
      ],
      "min": [
        -0.0096811102703213692,
        0.88052302598953247,
        -0.0083840899169445038
      ],
      "type": "VEC3"
    },
    {
      "bufferView": 2,
      "byteOffset": 792,
      "componentType": 5126,
      "count": 66,
      "max": [
        0.86602556705474854,
        0.74724626541137695,
        1
      ],
      "min": [
        -0.86602556705474854,
        -0.50819319486618042,
        -1
      ],
      "type": "VEC3"
    },
    {
      "bufferView": 3,
      "componentType": 5126,
      "count": 66,
      "max": [
        0.99934345483779907,
        0.58350318670272827,
        0.86715388298034668,
        1
      ],
      "min": [
        -0.99910080432891846,
        -0.55967861413955688,
        -0.86667943000793457,
        1
      ],
      "type": "VEC4"
    },
    {
      "bufferView": 1,
      "componentType": 5126,
      "count": 66,
      "max": [
        0.13125400245189667,
        0.084391199052333832
      ],
      "min": [
        0.03019770048558712,
        0.04993550106883049
      ],
      "type": "VEC2"
    },
    {
      "bufferView": 0,
      "componentType": 5125,
      "count": 156,
      "max": [
        65
      ],
      "min": [
        0
      ],
      "type": "SCALAR"
    },
    {
      "bufferView": 2,
      "byteOffset": 1584,
      "componentType": 5126,
      "count": 70,
      "max": [
        0.15107199549674988,
        0.92049801349639893,
        0.15107199549674988
      ],
      "min": [
        -0.15107199549674988,
        -0.45072001218795776,
        -0.15107199549674988
      ],
      "type": "VEC3"
    },
    {
      "bufferView": 2,
      "byteOffset": 2424,
      "componentType": 5126,
      "count": 70,
      "max": [
        0.99999821186065674,
        0.99706733226776123,
        0.9999997615814209
      ],
      "min": [
        -0.99999898672103882,
        5.951222192379646e-05,
        -0.99999874830245972
      ],
      "type": "VEC3"
    },
    {
      "bufferView": 3,
      "byteOffset": 1056,
      "componentType": 5126,
      "count": 70,
      "max": [
        0.99999886751174927,
        0.28030022978782654,
        0.99999678134918213,
        1
      ],
      "min": [
        -0.99999815225601196,
        -0.55187976360321045,
        -0.9999992847442627,
        1
      ],
      "type": "VEC4"
    },
    {
      "bufferView": 1,
      "byteOffset": 528,
      "componentType": 5126,
      "count": 70,
      "max": [
        0.79408597946166992,
        0.42845898866653442
      ],
      "min": [
        0.03019770048558712,
        0.049935400485992432
      ],
      "type": "VEC2"
    },
    {
      "bufferView": 0,
      "byteOffset": 624,
      "componentType": 5125,
      "count": 144,
      "max": [
        69
      ],
      "min": [
        0
      ],
      "type": "SCALAR"
    },
    {
      "bufferView": 2,
      "byteOffset": 3264,
      "componentType": 5126,
      "count": 898,
      "max": [
        0.77170097827911377,
        -0.27453398704528809,
        0.75997698307037354
      ],
      "min": [
        -0.77170097827911377,
        -1,
        -0.75997698307037354
      ],
      "type": "VEC3"
    },
    {
      "bufferView": 2,
      "byteOffset": 14040,
      "componentType": 5126,
      "count": 898,
      "max": [
        1,
        1,
        1
      ],
      "min": [
        -1,
        -1,
        -1
      ],
      "type": "VEC3"
    },
    {
      "bufferView": 3,
      "byteOffset": 2176,
      "componentType": 5126,
      "count": 898,
      "max": [
        0.97730165719985962,
        1,
        0.97490108013153076,
        1
      ],
      "min": [
        -0.94517648220062256,
        -0.99742317199707031,
        -0.96571660041809082,
        1
      ],
      "type": "VEC4"
    },
    {
      "bufferView": 1,
      "byteOffset": 1088,
      "componentType": 5126,
      "count": 898,
      "max": [
        0.97735202312469482,
        0.98162901401519775
      ],
      "min": [
        0.03019770048558712,
        0.022686699405312538
      ],
      "type": "VEC2"
    },
    {
      "bufferView": 0,
      "byteOffset": 1200,
      "componentType": 5125,
      "count": 2970,
      "max": [
        897
      ],
      "min": [
        0
      ],
      "type": "SCALAR"
    }
  ],
  "asset": {
    "extras": {
      "author": "matoteus (https://sketchfab.com/matoteus)",
      "license": "CC-BY-4.0 (http://creativecommons.org/licenses/by/4.0/)",
      "source": "https://sketchfab.com/3d-models/lowpoly-candle-c5b1ca5b8492426199932f6b1a64a4d9",
      "title": "Lowpoly Candle"
    },
    "generator": "Sketchfab-7.31.0",
    "version": "2.0"
  },
  "bufferViews": [
    {
      "buffer": 0,
      "byteLength": 13080,
      "byteOffset": 0,
      "name": "floatBufferViews",
      "target": 34963
    },
    {
      "buffer": 0,
      "byteLength": 8272,
      "byteOffset": 13080,
      "byteStride": 8,
      "name": "floatBufferViews",
      "target": 34962
    },
    {
      "buffer": 0,
      "byteLength": 24816,
      "byteOffset": 21352,
      "byteStride": 12,
      "name": "floatBufferViews",
      "target": 34962
    },
    {
      "buffer": 0,
      "byteLength": 16544,
      "byteOffset": 46168,
      "byteStride": 16,
      "name": "floatBufferViews",
      "target": 34962
    }
  ],
  "buffers": [
    {
      "byteLength": 62712,
      "uri": "scene.bin"
    }
  ],
  "images": [
    {
      "uri": "textures/lambert1_baseColor.jpeg"
    },
    {
      "uri": "textures/lambert1_metallicRoughness.png"
    },
    {
      "uri": "textures/lambert1_normal.png"
    }
  ],
  "materials": [
    {
      "doubleSided": true,
      "name": "lambert1",
      "normalTexture": {
        "index": 2,
        "scale": 1,
        "texCoord": 0
      },
      "occlusionTexture": {
        "index": 1,
        "strength": 1,
        "texCoord": 0
      },
      "pbrMetallicRoughness": {
        "baseColorFactor": [
          1,
          1,
          1,
          1
        ],
        "baseColorTexture": {
          "index": 0,
          "texCoord": 0
        },
        "metallicFactor": 1,
        "metallicRoughnessTexture": {
          "index": 1,
          "texCoord": 0
        },
        "roughnessFactor": 1
      }
    }
  ],
  "meshes": [
    {
      "name": "defaultMaterial",
      "primitives": [
        {
          "attributes": {
            "NORMAL": 1,
            "POSITION": 0,
            "TANGENT": 2,
            "TEXCOORD_0": 3
          },
          "indices": 4,
          "material": 0,
          "mode": 4
        }
      ]
    },
    {
      "name": "defaultMaterial",
      "primitives": [
        {
          "attributes": {
            "NORMAL": 6,
            "POSITION": 5,
            "TANGENT": 7,
            "TEXCOORD_0": 8
          },
          "indices": 9,
          "material": 0,
          "mode": 4
        }
      ]
    },
    {
      "name": "defaultMaterial",
      "primitives": [
        {
          "attributes": {
            "NORMAL": 11,
            "POSITION": 10,
            "TANGENT": 12,
            "TEXCOORD_0": 13
          },
          "indices": 14,
          "material": 0,
          "mode": 4
        }
      ]
    }
  ],
  "nodes": [
    {
      "children": [
        1
      ],
      "name": "RootNode (gltf orientation matrix)",
      "rotation": [
        -0.70710678118654746,
        -0,
        -0,
        0.70710678118654757
      ]
    },
    {
      "children": [
        2
      ],
      "name": "RootNode (model correction matrix)"
    },
    {
      "children": [
        3,
        5,
        7
      ],
      "matrix": [
        1,
        0,
        0,
        0,
        0,
        -4.3711390063094768e-08,
        0.999999999999999,
        0,
        0,
        -0.999999999999999,
        -4.3711390063094768e-08,
        0,
        0,
        0,
        0,
        1
      ],
      "name": "Collada visual scene group"
    },
    {
      "children": [
        4
      ],
      "name": "pCylinder3"
    },
    {
      "mesh": 0,
      "name": "defaultMaterial"
    },
    {
      "children": [
        6
      ],
      "name": "pCylinder2"
    },
    {
      "mesh": 1,
      "name": "defaultMaterial"
    },
    {
      "children": [
        8
      ],
      "name": "pCylinder1"
    },
    {
      "mesh": 2,
      "name": "defaultMaterial"
    }
  ],
  "samplers": [
    {
      "magFilter": 9729,
      "minFilter": 9987,
      "wrapS": 10497,
      "wrapT": 10497
    }
  ],
  "scene": 0,
  "scenes": [
    {
      "name": "OSG_Scene",
      "nodes": [
        0
      ]
    }
  ],
  "textures": [
    {
      "sampler": 0,
      "source": 0
    },
    {
      "sampler": 0,
      "source": 1
    },
    {
      "sampler": 0,
      "source": 2
    }
  ]
}

