{
  "accessors": [
    {
      "bufferView": 2,
      "componentType": 5126,
      "count": 1222,
      "max": [
        1.3214124441146851,
        6.507023811340332,
        1.1440647840499878
      ],
      "min": [
        -1.3274997472763062,
        1.2217097282409668,
        -1.1440647840499878
      ],
      "type": "VEC3"
    },
    {
      "bufferView": 2,
      "byteOffset": 14664,
      "componentType": 5126,
      "count": 1222,
      "max": [
        0.99406164884567261,
        1,
        1
      ],
      "min": [
        -0.99977219104766846,
        -1,
        -1
      ],
      "type": "VEC3"
    },
    {
      "bufferView": 1,
      "componentType": 5126,
      "count": 1222,
      "max": [
        0.98150688409805298,
        0.96410858631134033
      ],
      "min": [
        0.048088788986206055,
        0.048245731741189957
      ],
      "type": "VEC2"
    },
    {
      "bufferView": 0,
      "componentType": 5125,
      "count": 2706,
      "max": [
        1221
      ],
      "min": [
        0
      ],
      "type": "SCALAR"
    }
  ],
  "asset": {
    "extras": {
      "author": "Vector Creative (https://sketchfab.com/vectorcreativenz)",
      "license": "CC-BY-4.0 (http://creativecommons.org/licenses/by/4.0/)",
      "source": "https://sketchfab.com/3d-models/handheld-lantern-15d3626feebc4c8d82c5b47b13f95fb5",
      "title": "Handheld Lantern"
    },
    "generator": "Sketchfab-8.16.0",
    "version": "2.0"
  },
  "bufferViews": [
    {
      "buffer": 0,
      "byteLength": 10824,
      "byteOffset": 0,
      "name": "floatBufferViews",
      "target": 34963
    },
    {
      "buffer": 0,
      "byteLength": 9776,
      "byteOffset": 10824,
      "byteStride": 8,
      "name": "floatBufferViews",
      "target": 34962
    },
    {
      "buffer": 0,
      "byteLength": 29328,
      "byteOffset": 20600,
      "byteStride": 12,
      "name": "floatBufferViews",
      "target": 34962
    }
  ],
  "buffers": [
    {
      "byteLength": 49928,
      "uri": "scene.bin"
    }
  ],
  "images": [
    {
      "uri": "textures/lantern_text_baseColor.jpeg"
    }
  ],
  "materials": [
    {
      "doubleSided": true,
      "emissiveFactor": [
        0,
        0,
        0
      ],
      "name": "lantern_text",
      "pbrMetallicRoughness": {
        "baseColorFactor": [
          1,
          1,
          1,
          1
        ],
        "baseColorTexture": {
          "index": 0,
          "texCoord": 0
        },
        "metallicFactor": 0,
        "roughnessFactor": 1
      }
    }
  ],
  "meshes": [
    {
      "name": "Lantern_lantern_text_0",
      "primitives": [
        {
          "attributes": {
            "NORMAL": 1,
            "POSITION": 0,
            "TEXCOORD_0": 2
          },
          "indices": 3,
          "material": 0,
          "mode": 4
        }
      ]
    }
  ],
  "nodes": [
    {
      "children": [
        1
      ],
      "name": "RootNode (gltf orientation matrix)",
      "rotation": [
        -0.70710678118654746,
        -0,
        -0,
        0.70710678118654757
      ]
    },
    {
      "children": [
        2
      ],
      "matrix": [
        0.082104206085205078,
        0,
        0,
        0,
        0,
        0.082104206085205078,
        0,
        0,
        0,
        0,
        0.082104206085205078,
        0,
        0,
        0,
        0,
        1
      ],
      "name": "RootNode (model correction matrix)"
    },
    {
      "children": [
        3
      ],
      "matrix": [
        1,
        0,
        0,
        0,
        0,
        0,
        1,
        0,
        0,
        -1,
        0,
        0,
        0,
        0,
        0,
        1
      ],
      "name": "f82c02d5aa2e463a9f0b2803f9d24624.fbx"
    },
    {
      "children": [
        4
      ],
      "name": "RootNode"
    },
    {
      "children": [
        5
      ],
      "name": "Lantern"
    },
    {
      "mesh": 0,
      "name": "Lantern_lantern_text_0"
    }
  ],
  "samplers": [
    {
      "magFilter": 9729,
      "minFilter": 9987,
      "wrapS": 10497,
      "wrapT": 10497
    }
  ],
  "scene": 0,
  "scenes": [
    {
      "name": "OSG_Scene",
      "nodes": [
        0
      ]
    }
  ],
  "textures": [
    {
      "sampler": 0,
      "source": 0
    }
  ]
}

